<svg xmlns="http://www.w3.org/2000/svg" viewBox="0 0 1200 630" width="1200" height="630">
  <defs>
    <linearGradient id="g_ballot_politica2" x1="0" y1="0" x2="1" y2="1">
      <stop offset="0" stop-color="#4338ca"/>
      <stop offset="1" stop-color="#6366f1"/>
    </linearGradient>
  </defs>
  <rect width="1200" height="630" fill="url(#g_ballot_politica2)"/>
  <circle cx="1040" cy="90" r="260" fill="rgba(255,255,255,0.06)"/>
  <circle cx="120" cy="560" r="200" fill="rgba(255,255,255,0.05)"/>
  <g transform="translate(600,285) scale(9)" stroke="rgba(255,255,255,0.92)" stroke-width="1.15" fill="none" stroke-linecap="round" stroke-linejoin="round">
    <g transform="translate(-12,-12)">

    <rect x="3" y="10" width="13" height="10" rx="1"/>
    <path d="M3 14h13"/>
    <path d="M6.5 10V8A2.5 2.5 0 0 1 9 5.5 2.5 2.5 0 0 1 11.5 8v2"/>
    <path d="M19.5 8.5l3.2 5.6a.9.9 0 0 1-.8 1.4h-6.4a.9.9 0 0 1-.8-1.4l3.2-5.6a.9.9 0 0 1 1.6 0Z"/>
    <path d="M19.5 11v1.8"/>
    <circle cx="19.5" cy="14.3" r=".15" fill="white" stroke="none"/>

    </g>
  </g>

  <text x="600" y="470" text-anchor="middle" font-family="Arial, Helvetica, sans-serif" font-size="30" font-weight="700" letter-spacing="4" fill="rgba(255,255,255,0.95)">POLÍTICA</text>
  <text x="600" y="505" text-anchor="middle" font-family="Arial, Helvetica, sans-serif" font-size="18" letter-spacing="3" fill="rgba(255,255,255,0.72)">TCE · QUITO</text>
  <text x="600" y="580" text-anchor="middle" font-family="Arial, Helvetica, sans-serif" font-size="16" letter-spacing="1" fill="rgba(255,255,255,0.55)">⚖ TU ABOGADO GRATIS · NOTICIAS</text>
</svg>
