<svg xmlns="http://www.w3.org/2000/svg" viewBox="0 0 1200 630" width="1200" height="630">
  <defs>
    <linearGradient id="g_hourglass_justicia" x1="0" y1="0" x2="1" y2="1">
      <stop offset="0" stop-color="#334155"/>
      <stop offset="1" stop-color="#7c3aed"/>
    </linearGradient>
  </defs>
  <rect width="1200" height="630" fill="url(#g_hourglass_justicia)"/>
  <circle cx="1040" cy="90" r="260" fill="rgba(255,255,255,0.06)"/>
  <circle cx="120" cy="560" r="200" fill="rgba(255,255,255,0.05)"/>
  <g transform="translate(600,285) scale(9)" stroke="rgba(255,255,255,0.92)" stroke-width="1.15" fill="none" stroke-linecap="round" stroke-linejoin="round">
    <g transform="translate(-12,-12)">

    <path d="M5 22h14"/>
    <path d="M5 2h14"/>
    <path d="M17 22v-4.17a2 2 0 0 0-.59-1.42L12 12l-4.41 4.41a2 2 0 0 0-.59 1.42V22"/>
    <path d="M7 2v4.17a2 2 0 0 0 .59 1.42L12 12l4.41-4.41A2 2 0 0 0 17 6.17V2"/>

    </g>
  </g>

  <text x="600" y="470" text-anchor="middle" font-family="Arial, Helvetica, sans-serif" font-size="30" font-weight="700" letter-spacing="4" fill="rgba(255,255,255,0.95)">JUSTICIA</text>
  <text x="600" y="505" text-anchor="middle" font-family="Arial, Helvetica, sans-serif" font-size="18" letter-spacing="3" fill="rgba(255,255,255,0.72)">FISCAL GENERAL</text>
  <text x="600" y="580" text-anchor="middle" font-family="Arial, Helvetica, sans-serif" font-size="16" letter-spacing="1" fill="rgba(255,255,255,0.55)">⚖ TU ABOGADO GRATIS · NOTICIAS</text>
</svg>
