<svg xmlns="http://www.w3.org/2000/svg" viewBox="0 0 1200 630" width="1200" height="630">
  <defs>
    <linearGradient id="g_building_economia" x1="0" y1="0" x2="1" y2="1">
      <stop offset="0" stop-color="#047857"/>
      <stop offset="1" stop-color="#10b981"/>
    </linearGradient>
  </defs>
  <rect width="1200" height="630" fill="url(#g_building_economia)"/>
  <circle cx="1040" cy="90" r="260" fill="rgba(255,255,255,0.06)"/>
  <circle cx="120" cy="560" r="200" fill="rgba(255,255,255,0.05)"/>
  <g transform="translate(600,285) scale(9)" stroke="rgba(255,255,255,0.92)" stroke-width="1.15" fill="none" stroke-linecap="round" stroke-linejoin="round">
    <g transform="translate(-12,-12)">

    <path d="M6 21.5V3.5a1 1 0 0 1 1-1h8a1 1 0 0 1 1 1v18Z"/>
    <path d="M6 11.5H4.5a1 1 0 0 0-1 1v7a1 1 0 0 0 1 1H6"/>
    <path d="M16 8.5h2.5a1 1 0 0 1 1 1v9a1 1 0 0 1-1 1H16"/>
    <path d="M9.5 6.5h3"/>
    <path d="M9.5 10.5h3"/>
    <path d="M9.5 14.5h3"/>
    <path d="M9.5 18.5h3"/>

    </g>
  </g>

  <text x="600" y="470" text-anchor="middle" font-family="Arial, Helvetica, sans-serif" font-size="30" font-weight="700" letter-spacing="4" fill="rgba(255,255,255,0.95)">ECONOMÍA</text>
  <text x="600" y="505" text-anchor="middle" font-family="Arial, Helvetica, sans-serif" font-size="18" letter-spacing="3" fill="rgba(255,255,255,0.72)">EMPRESAS</text>
  <text x="600" y="580" text-anchor="middle" font-family="Arial, Helvetica, sans-serif" font-size="16" letter-spacing="1" fill="rgba(255,255,255,0.55)">⚖ TU ABOGADO GRATIS · NOTICIAS</text>
</svg>
