<svg xmlns="http://www.w3.org/2000/svg" viewBox="0 0 1200 630" width="1200" height="630">
  <defs>
    <linearGradient id="g_rice_economia" x1="0" y1="0" x2="1" y2="1">
      <stop offset="0" stop-color="#047857"/>
      <stop offset="1" stop-color="#10b981"/>
    </linearGradient>
  </defs>
  <rect width="1200" height="630" fill="url(#g_rice_economia)"/>
  <circle cx="1040" cy="90" r="260" fill="rgba(255,255,255,0.06)"/>
  <circle cx="120" cy="560" r="200" fill="rgba(255,255,255,0.05)"/>
  <g transform="translate(600,285) scale(9)" stroke="rgba(255,255,255,0.92)" stroke-width="1.15" fill="none" stroke-linecap="round" stroke-linejoin="round">
    <g transform="translate(-12,-12)">
      
    <path d="M12 21V9"/>
    <path d="M12 9c0-3.5-2-6-4.5-6.5C8 6 10 9 12 9Z"/>
    <path d="M12 9c0-3.5 2-6 4.5-6.5C16 6 14 9 12 9Z"/>
    <path d="M12 13c0-2.5-1.6-4.3-3.6-4.7C8.7 11 10.3 13 12 13Z"/>
    <path d="M12 13c0-2.5 1.6-4.3 3.6-4.7C15.3 11 13.7 13 12 13Z"/>
    <path d="M4 21h16"/>
  
    </g>
  </g>
  
  <text x="600" y="470" text-anchor="middle" font-family="Arial, Helvetica, sans-serif" font-size="30" font-weight="700" letter-spacing="4" fill="rgba(255,255,255,0.95)">ECONOMÍA</text>
  <text x="600" y="505" text-anchor="middle" font-family="Arial, Helvetica, sans-serif" font-size="18" letter-spacing="3" fill="rgba(255,255,255,0.72)">AGRO</text>
  <text x="600" y="580" text-anchor="middle" font-family="Arial, Helvetica, sans-serif" font-size="16" letter-spacing="1" fill="rgba(255,255,255,0.55)">⚖ TU ABOGADO GRATIS · NOTICIAS</text>
</svg>