<svg xmlns="http://www.w3.org/2000/svg" viewBox="0 0 1200 630" width="1200" height="630">
  <defs>
    <linearGradient id="g3" x1="0" y1="0" x2="1" y2="1">
      <stop offset="0" stop-color="#b91c1c"/>
      <stop offset="1" stop-color="#f97316"/>
    </linearGradient>
  </defs>
  <rect width="1200" height="630" fill="url(#g3)"/>
  <circle cx="1040" cy="90" r="260" fill="rgba(255,255,255,0.06)"/>
  <circle cx="120" cy="560" r="200" fill="rgba(255,255,255,0.05)"/>
  <g transform="translate(600,285) scale(9)" stroke="rgba(255,255,255,0.92)" stroke-width="1.15" fill="none" stroke-linecap="round" stroke-linejoin="round">
    <g transform="translate(-12,-12)">
    <path d="M8.5 14.5A2.5 2.5 0 0011 12c0-1.38-.5-2-1-3-1.072-2.143-.224-4.054 2-6 .5 2.5 2 4.9 4 6.5 2 1.6 3 3.5 3 5.5a7 7 0 11-14 0c0-1.153.433-2.294 1-3a2.5 2.5 0 002.5 2.5z"/>
    </g>
  </g>
</svg>
