<svg xmlns="http://www.w3.org/2000/svg" viewBox="0 0 1200 630" width="1200" height="630">
  <defs>
    <linearGradient id="g_car_seguridad" x1="0" y1="0" x2="1" y2="1">
      <stop offset="0" stop-color="#b91c1c"/>
      <stop offset="1" stop-color="#f97316"/>
    </linearGradient>
  </defs>
  <rect width="1200" height="630" fill="url(#g_car_seguridad)"/>
  <circle cx="1040" cy="90" r="260" fill="rgba(255,255,255,0.06)"/>
  <circle cx="120" cy="560" r="200" fill="rgba(255,255,255,0.05)"/>
  <g transform="translate(600,285) scale(9)" stroke="rgba(255,255,255,0.92)" stroke-width="1.15" fill="none" stroke-linecap="round" stroke-linejoin="round">
    <g transform="translate(-12,-12)">

    <path d="M3.5 16.5v-3l1.8-4.4a2 2 0 0 1 1.9-1.3h9.6a2 2 0 0 1 1.9 1.3l1.8 4.4v3"/>
    <path d="M3.5 16.5h17v2.3a1 1 0 0 1-1 1h-1.4a1 1 0 0 1-1-1v-1.1H6.9v1.1a1 1 0 0 1-1 1H4.5a1 1 0 0 1-1-1v-2.3Z"/>
    <circle cx="7.3" cy="14.2" r="1.1"/>
    <circle cx="16.7" cy="14.2" r="1.1"/>

    </g>
  </g>

  <text x="600" y="470" text-anchor="middle" font-family="Arial, Helvetica, sans-serif" font-size="30" font-weight="700" letter-spacing="4" fill="rgba(255,255,255,0.95)">SEGURIDAD</text>
  <text x="600" y="505" text-anchor="middle" font-family="Arial, Helvetica, sans-serif" font-size="18" letter-spacing="3" fill="rgba(255,255,255,0.72)">OPERATIVO BABAHOYO</text>
  <text x="600" y="580" text-anchor="middle" font-family="Arial, Helvetica, sans-serif" font-size="16" letter-spacing="1" fill="rgba(255,255,255,0.55)">⚖ TU ABOGADO GRATIS · NOTICIAS</text>
</svg>
