<svg xmlns="http://www.w3.org/2000/svg" viewBox="0 0 1200 630" width="1200" height="630">
  <defs>
    <linearGradient id="g_globe_internacional" x1="0" y1="0" x2="1" y2="1">
      <stop offset="0" stop-color="#0c4a6e"/>
      <stop offset="1" stop-color="#0284c7"/>
    </linearGradient>
  </defs>
  <rect width="1200" height="630" fill="url(#g_globe_internacional)"/>
  <circle cx="1040" cy="90" r="260" fill="rgba(255,255,255,0.06)"/>
  <circle cx="120" cy="560" r="200" fill="rgba(255,255,255,0.05)"/>
  <g transform="translate(600,285) scale(9)" stroke="rgba(255,255,255,0.92)" stroke-width="1.15" fill="none" stroke-linecap="round" stroke-linejoin="round">
    <g transform="translate(-12,-12)">

    <circle cx="12" cy="12" r="9.2"/>
    <path d="M2.8 12h18.4"/>
    <path d="M12 2.8c2.6 2.7 4 6 4 9.2s-1.4 6.5-4 9.2c-2.6-2.7-4-6-4-9.2s1.4-6.5 4-9.2Z"/>
    <path d="M9.5 9l-1.8 2 1.8 2"/>
    <path d="M14.5 9l1.8 2-1.8 2"/>

    </g>
  </g>

  <text x="600" y="470" text-anchor="middle" font-family="Arial, Helvetica, sans-serif" font-size="30" font-weight="700" letter-spacing="4" fill="rgba(255,255,255,0.95)">INTERNACIONAL</text>
  <text x="600" y="505" text-anchor="middle" font-family="Arial, Helvetica, sans-serif" font-size="18" letter-spacing="3" fill="rgba(255,255,255,0.72)">TERREMOTO</text>
  <text x="600" y="580" text-anchor="middle" font-family="Arial, Helvetica, sans-serif" font-size="16" letter-spacing="1" fill="rgba(255,255,255,0.55)">⚖ TU ABOGADO GRATIS · NOTICIAS</text>
</svg>